<mxfile host="app.diagrams.net" agent="Mozilla/5.0 (Windows NT 10.0; Win64; x64) AppleWebKit/537.36 (KHTML, like Gecko) Chrome/132.0.0.0 Safari/537.36" version="26.0.11">
  <diagram name="Page-1" id="wmawqIfksL1p7wi_-nPH">
    <mxGraphModel dx="1672" dy="818" grid="1" gridSize="10" guides="1" tooltips="1" connect="1" arrows="1" fold="1" page="1" pageScale="1" pageWidth="850" pageHeight="1100" math="0" shadow="0">
      <root>
        <mxCell id="0" />
        <mxCell id="1" parent="0" />
        <mxCell id="6HmkQaFNLhRXF8Ojeni_-1" value="" style="rounded=0;whiteSpace=wrap;html=1;" vertex="1" parent="1">
          <mxGeometry x="50" y="190" width="300" height="690" as="geometry" />
        </mxCell>
        <mxCell id="6HmkQaFNLhRXF8Ojeni_-2" value="Main Screen" style="text;html=1;align=center;verticalAlign=middle;whiteSpace=wrap;rounded=0;" vertex="1" parent="1">
          <mxGeometry x="155" y="140" width="90" height="30" as="geometry" />
        </mxCell>
        <mxCell id="6HmkQaFNLhRXF8Ojeni_-4" value="" style="rounded=0;whiteSpace=wrap;html=1;" vertex="1" parent="1">
          <mxGeometry x="85" y="250" width="230" height="250" as="geometry" />
        </mxCell>
        <mxCell id="6HmkQaFNLhRXF8Ojeni_-5" value="Restaurant Image" style="text;html=1;align=center;verticalAlign=middle;whiteSpace=wrap;rounded=0;" vertex="1" parent="1">
          <mxGeometry x="155" y="345" width="90" height="60" as="geometry" />
        </mxCell>
        <mxCell id="6HmkQaFNLhRXF8Ojeni_-7" value="&lt;b&gt;&lt;font style=&quot;font-size: 17px;&quot;&gt;Restaurant Name Title&lt;/font&gt;&lt;/b&gt;" style="text;html=1;align=center;verticalAlign=middle;whiteSpace=wrap;rounded=0;" vertex="1" parent="1">
          <mxGeometry x="107.5" y="210" width="185" height="30" as="geometry" />
        </mxCell>
        <mxCell id="6HmkQaFNLhRXF8Ojeni_-8" value="Phone Number" style="text;html=1;align=center;verticalAlign=middle;whiteSpace=wrap;rounded=0;" vertex="1" parent="1">
          <mxGeometry x="142.5" y="520" width="115" height="30" as="geometry" />
        </mxCell>
        <mxCell id="6HmkQaFNLhRXF8Ojeni_-9" value="Address" style="text;html=1;align=center;verticalAlign=middle;whiteSpace=wrap;rounded=0;" vertex="1" parent="1">
          <mxGeometry x="142.5" y="570" width="115" height="30" as="geometry" />
        </mxCell>
        <mxCell id="6HmkQaFNLhRXF8Ojeni_-10" value="Website" style="text;html=1;align=center;verticalAlign=middle;whiteSpace=wrap;rounded=0;" vertex="1" parent="1">
          <mxGeometry x="142.5" y="640" width="115" height="30" as="geometry" />
        </mxCell>
        <mxCell id="6HmkQaFNLhRXF8Ojeni_-12" value="Second Page Navigation Button" style="rounded=1;whiteSpace=wrap;html=1;" vertex="1" parent="1">
          <mxGeometry x="140" y="785" width="120" height="60" as="geometry" />
        </mxCell>
        <mxCell id="6HmkQaFNLhRXF8Ojeni_-14" value="Menu Screen" style="text;html=1;align=center;verticalAlign=middle;whiteSpace=wrap;rounded=0;" vertex="1" parent="1">
          <mxGeometry x="562.5" y="140" width="85" height="30" as="geometry" />
        </mxCell>
        <mxCell id="6HmkQaFNLhRXF8Ojeni_-27" value="" style="rounded=0;whiteSpace=wrap;html=1;" vertex="1" parent="1">
          <mxGeometry x="440" y="185" width="310" height="695" as="geometry" />
        </mxCell>
        <mxCell id="6HmkQaFNLhRXF8Ojeni_-28" value="Menu Screen Title" style="text;html=1;align=center;verticalAlign=middle;whiteSpace=wrap;rounded=0;fontSize=21;fontStyle=1" vertex="1" parent="1">
          <mxGeometry x="480" y="210" width="250" height="30" as="geometry" />
        </mxCell>
        <mxCell id="6HmkQaFNLhRXF8Ojeni_-29" value="" style="rounded=0;whiteSpace=wrap;html=1;" vertex="1" parent="1">
          <mxGeometry x="495" y="250" width="210" height="260" as="geometry" />
        </mxCell>
        <mxCell id="6HmkQaFNLhRXF8Ojeni_-30" value="Menu Item Name" style="text;html=1;align=center;verticalAlign=middle;whiteSpace=wrap;rounded=0;" vertex="1" parent="1">
          <mxGeometry x="555" y="270" width="100" height="30" as="geometry" />
        </mxCell>
        <mxCell id="6HmkQaFNLhRXF8Ojeni_-31" value="Menu Item Price" style="text;html=1;align=center;verticalAlign=middle;whiteSpace=wrap;rounded=0;" vertex="1" parent="1">
          <mxGeometry x="570" y="470" width="60" height="30" as="geometry" />
        </mxCell>
        <mxCell id="6HmkQaFNLhRXF8Ojeni_-32" value="" style="rounded=0;whiteSpace=wrap;html=1;" vertex="1" parent="1">
          <mxGeometry x="540" y="300" width="120" height="150" as="geometry" />
        </mxCell>
        <mxCell id="6HmkQaFNLhRXF8Ojeni_-33" value="Menu Item Image" style="text;html=1;align=center;verticalAlign=middle;whiteSpace=wrap;rounded=0;" vertex="1" parent="1">
          <mxGeometry x="570" y="360" width="60" height="30" as="geometry" />
        </mxCell>
        <mxCell id="6HmkQaFNLhRXF8Ojeni_-34" value="" style="rounded=0;whiteSpace=wrap;html=1;" vertex="1" parent="1">
          <mxGeometry x="495" y="525" width="210" height="260" as="geometry" />
        </mxCell>
        <mxCell id="6HmkQaFNLhRXF8Ojeni_-35" value="Menu Item Name" style="text;html=1;align=center;verticalAlign=middle;whiteSpace=wrap;rounded=0;" vertex="1" parent="1">
          <mxGeometry x="555" y="550" width="100" height="30" as="geometry" />
        </mxCell>
        <mxCell id="6HmkQaFNLhRXF8Ojeni_-36" value="Menu Item Price" style="text;html=1;align=center;verticalAlign=middle;whiteSpace=wrap;rounded=0;" vertex="1" parent="1">
          <mxGeometry x="570" y="750" width="60" height="30" as="geometry" />
        </mxCell>
        <mxCell id="6HmkQaFNLhRXF8Ojeni_-37" value="" style="rounded=0;whiteSpace=wrap;html=1;" vertex="1" parent="1">
          <mxGeometry x="540" y="590" width="120" height="150" as="geometry" />
        </mxCell>
        <mxCell id="6HmkQaFNLhRXF8Ojeni_-38" value="Menu Item Image" style="text;html=1;align=center;verticalAlign=middle;whiteSpace=wrap;rounded=0;" vertex="1" parent="1">
          <mxGeometry x="570" y="650" width="60" height="30" as="geometry" />
        </mxCell>
        <mxCell id="6HmkQaFNLhRXF8Ojeni_-39" value="Main Screen Navigation Button" style="rounded=1;whiteSpace=wrap;html=1;" vertex="1" parent="1">
          <mxGeometry x="535" y="810" width="120" height="60" as="geometry" />
        </mxCell>
      </root>
    </mxGraphModel>
  </diagram>
</mxfile>
